<mxfile host="app.diagrams.net" modified="2022-01-17T06:57:28.759Z" agent="5.0 (Macintosh; Intel Mac OS X 10_15_7) AppleWebKit/537.36 (KHTML, like Gecko) Chrome/97.0.4692.71 Safari/537.36" etag="Havdll28TRXk401my66p" version="16.2.7" type="github">
  <diagram id="csS6xj0p1FMGxnhOgaVb" name="Page-1">
    <mxGraphModel dx="1186" dy="654" grid="1" gridSize="10" guides="1" tooltips="1" connect="1" arrows="1" fold="1" page="1" pageScale="1" pageWidth="827" pageHeight="1169" math="0" shadow="0">
      <root>
        <mxCell id="0" />
        <mxCell id="1" parent="0" />
        <mxCell id="evdlxrUFSpILPRqsL9f6-3" style="edgeStyle=orthogonalEdgeStyle;rounded=0;orthogonalLoop=1;jettySize=auto;html=1;exitX=1;exitY=0.5;exitDx=0;exitDy=0;" edge="1" parent="1" source="evdlxrUFSpILPRqsL9f6-1" target="evdlxrUFSpILPRqsL9f6-2">
          <mxGeometry relative="1" as="geometry" />
        </mxCell>
        <mxCell id="evdlxrUFSpILPRqsL9f6-4" value="加锁" style="edgeLabel;html=1;align=center;verticalAlign=middle;resizable=0;points=[];" vertex="1" connectable="0" parent="evdlxrUFSpILPRqsL9f6-3">
          <mxGeometry x="-0.0929" y="1" relative="1" as="geometry">
            <mxPoint x="13" y="1" as="offset" />
          </mxGeometry>
        </mxCell>
        <mxCell id="evdlxrUFSpILPRqsL9f6-6" style="edgeStyle=orthogonalEdgeStyle;rounded=0;orthogonalLoop=1;jettySize=auto;html=1;exitX=0.5;exitY=0;exitDx=0;exitDy=0;entryX=0;entryY=0.5;entryDx=0;entryDy=0;" edge="1" parent="1" source="evdlxrUFSpILPRqsL9f6-1" target="evdlxrUFSpILPRqsL9f6-5">
          <mxGeometry relative="1" as="geometry" />
        </mxCell>
        <mxCell id="evdlxrUFSpILPRqsL9f6-8" value="如果加锁成功" style="edgeLabel;html=1;align=center;verticalAlign=middle;resizable=0;points=[];" vertex="1" connectable="0" parent="evdlxrUFSpILPRqsL9f6-6">
          <mxGeometry x="0.028" y="3" relative="1" as="geometry">
            <mxPoint x="-40" y="33" as="offset" />
          </mxGeometry>
        </mxCell>
        <mxCell id="evdlxrUFSpILPRqsL9f6-10" style="edgeStyle=orthogonalEdgeStyle;rounded=0;orthogonalLoop=1;jettySize=auto;html=1;exitX=0.5;exitY=1;exitDx=0;exitDy=0;entryX=0.5;entryY=1;entryDx=0;entryDy=0;" edge="1" parent="1" source="evdlxrUFSpILPRqsL9f6-1" target="evdlxrUFSpILPRqsL9f6-2">
          <mxGeometry relative="1" as="geometry">
            <Array as="points">
              <mxPoint x="214" y="300" />
              <mxPoint x="614" y="300" />
            </Array>
          </mxGeometry>
        </mxCell>
        <mxCell id="evdlxrUFSpILPRqsL9f6-11" value="释放锁" style="edgeLabel;html=1;align=center;verticalAlign=middle;resizable=0;points=[];" vertex="1" connectable="0" parent="evdlxrUFSpILPRqsL9f6-10">
          <mxGeometry x="-0.0458" relative="1" as="geometry">
            <mxPoint as="offset" />
          </mxGeometry>
        </mxCell>
        <mxCell id="evdlxrUFSpILPRqsL9f6-1" value="Client 1" style="rounded=0;whiteSpace=wrap;html=1;fillColor=#dae8fc;strokeColor=#6c8ebf;" vertex="1" parent="1">
          <mxGeometry x="154" y="200" width="120" height="60" as="geometry" />
        </mxCell>
        <mxCell id="evdlxrUFSpILPRqsL9f6-2" value="Redis Cluster" style="rounded=0;whiteSpace=wrap;html=1;fillColor=#d5e8d4;strokeColor=#82b366;" vertex="1" parent="1">
          <mxGeometry x="554" y="200" width="120" height="60" as="geometry" />
        </mxCell>
        <mxCell id="evdlxrUFSpILPRqsL9f6-7" style="edgeStyle=orthogonalEdgeStyle;rounded=0;orthogonalLoop=1;jettySize=auto;html=1;exitX=1;exitY=0.5;exitDx=0;exitDy=0;entryX=0.5;entryY=0;entryDx=0;entryDy=0;" edge="1" parent="1" source="evdlxrUFSpILPRqsL9f6-5" target="evdlxrUFSpILPRqsL9f6-2">
          <mxGeometry relative="1" as="geometry" />
        </mxCell>
        <mxCell id="evdlxrUFSpILPRqsL9f6-9" value="定时检查，并延长锁的过期时间" style="edgeLabel;html=1;align=center;verticalAlign=middle;resizable=0;points=[];" vertex="1" connectable="0" parent="evdlxrUFSpILPRqsL9f6-7">
          <mxGeometry x="0.6019" y="-1" relative="1" as="geometry">
            <mxPoint as="offset" />
          </mxGeometry>
        </mxCell>
        <mxCell id="evdlxrUFSpILPRqsL9f6-5" value="Task&lt;br&gt;定时任务" style="rounded=0;whiteSpace=wrap;html=1;fillColor=#f8cecc;strokeColor=#b85450;" vertex="1" parent="1">
          <mxGeometry x="358" y="100" width="120" height="60" as="geometry" />
        </mxCell>
        <mxCell id="evdlxrUFSpILPRqsL9f6-16" style="edgeStyle=orthogonalEdgeStyle;rounded=0;orthogonalLoop=1;jettySize=auto;html=1;exitX=1;exitY=0.5;exitDx=0;exitDy=0;entryX=0;entryY=0.5;entryDx=0;entryDy=0;" edge="1" parent="1" source="evdlxrUFSpILPRqsL9f6-12" target="evdlxrUFSpILPRqsL9f6-14">
          <mxGeometry relative="1" as="geometry" />
        </mxCell>
        <mxCell id="evdlxrUFSpILPRqsL9f6-12" value="Client 1" style="rounded=0;whiteSpace=wrap;html=1;fillColor=#dae8fc;strokeColor=#6c8ebf;" vertex="1" parent="1">
          <mxGeometry x="154" y="370" width="120" height="60" as="geometry" />
        </mxCell>
        <mxCell id="evdlxrUFSpILPRqsL9f6-15" style="edgeStyle=orthogonalEdgeStyle;rounded=0;orthogonalLoop=1;jettySize=auto;html=1;exitX=1;exitY=0.5;exitDx=0;exitDy=0;entryX=0.75;entryY=1;entryDx=0;entryDy=0;" edge="1" parent="1" source="evdlxrUFSpILPRqsL9f6-14" target="evdlxrUFSpILPRqsL9f6-2">
          <mxGeometry relative="1" as="geometry" />
        </mxCell>
        <mxCell id="evdlxrUFSpILPRqsL9f6-18" style="edgeStyle=orthogonalEdgeStyle;rounded=0;orthogonalLoop=1;jettySize=auto;html=1;exitX=0.5;exitY=1;exitDx=0;exitDy=0;entryX=0.5;entryY=1;entryDx=0;entryDy=0;" edge="1" parent="1" source="evdlxrUFSpILPRqsL9f6-14" target="evdlxrUFSpILPRqsL9f6-12">
          <mxGeometry relative="1" as="geometry">
            <Array as="points">
              <mxPoint x="394" y="470" />
              <mxPoint x="214" y="470" />
            </Array>
          </mxGeometry>
        </mxCell>
        <mxCell id="evdlxrUFSpILPRqsL9f6-19" value="循环，直到加锁成功" style="edgeLabel;html=1;align=center;verticalAlign=middle;resizable=0;points=[];" vertex="1" connectable="0" parent="evdlxrUFSpILPRqsL9f6-18">
          <mxGeometry x="-0.1231" y="2" relative="1" as="geometry">
            <mxPoint x="-16" y="-2" as="offset" />
          </mxGeometry>
        </mxCell>
        <mxCell id="evdlxrUFSpILPRqsL9f6-14" value="加锁成功" style="rhombus;whiteSpace=wrap;html=1;fillColor=#fff2cc;strokeColor=#d6b656;" vertex="1" parent="1">
          <mxGeometry x="344" y="370" width="100" height="60" as="geometry" />
        </mxCell>
      </root>
    </mxGraphModel>
  </diagram>
</mxfile>
